<svg width="231" height="34" viewBox="0 0 231 34" fill="none" xmlns="http://www.w3.org/2000/svg">
<path d="M68 0H144V34H68V0Z" fill="#00A24A"/>
<path d="M5.47187 29.9994H1.78196C1.58996 29.9994 1.49396 29.9154 1.49396 29.7474L1.45797 4.63802C1.45797 4.44602 1.55396 4.35003 1.74596 4.35003H5.07588L11.3037 18.8757L11.1237 4.63802C11.1237 4.44602 11.2317 4.35003 11.4477 4.35003H15.1016C15.2456 4.35003 15.3176 4.44602 15.3176 4.63802L15.3536 29.7834C15.3536 29.9274 15.2936 29.9994 15.1736 29.9994H11.9337L5.54387 16.4277L5.81386 29.7114C5.81386 29.9034 5.69987 29.9994 5.47187 29.9994ZM25.3794 30.3594C24.0714 30.3594 22.8655 30.0234 21.7615 29.3514C20.6695 28.6795 19.7875 27.7855 19.1155 26.6695C18.4556 25.5415 18.1256 24.3056 18.1256 22.9616L18.1616 11.2799C18.1616 9.91189 18.4916 8.68192 19.1515 7.58995C19.7995 6.48598 20.6755 5.604 21.7795 4.94401C22.8835 4.27203 24.0834 3.93604 25.3794 3.93604C26.7234 3.93604 27.9293 4.26603 28.9973 4.92601C30.0773 5.586 30.9413 6.47398 31.5893 7.58995C32.2492 8.69392 32.5792 9.92389 32.5792 11.2799L32.6152 22.9616C32.6152 24.3056 32.2912 25.5355 31.6433 26.6515C30.9833 27.7795 30.1073 28.6795 29.0153 29.3514C27.9233 30.0234 26.7114 30.3594 25.3794 30.3594ZM25.3794 25.9135C26.1234 25.9135 26.7714 25.6135 27.3234 25.0135C27.8753 24.4016 28.1513 23.7176 28.1513 22.9616L28.1153 11.2799C28.1153 10.4639 27.8573 9.7739 27.3414 9.20991C26.8254 8.64592 26.1714 8.36393 25.3794 8.36393C24.6234 8.36393 23.9754 8.63993 23.4354 9.19191C22.8955 9.7439 22.6255 10.4399 22.6255 11.2799V22.9616C22.6255 23.7656 22.8955 24.4616 23.4354 25.0495C23.9754 25.6255 24.6234 25.9135 25.3794 25.9135ZM42.515 29.9994H38.3571C38.2491 29.9994 38.1951 29.9394 38.1951 29.8194V8.79592H33.4072C33.2872 8.79592 33.2272 8.73592 33.2272 8.61593L33.2632 4.49402C33.2632 4.39803 33.3112 4.35003 33.4072 4.35003H47.4109C47.5429 4.35003 47.6089 4.39803 47.6089 4.49402V8.61593C47.6089 8.73592 47.5609 8.79592 47.4649 8.79592H42.623L42.659 29.8194C42.659 29.9394 42.611 29.9994 42.515 29.9994ZM61.4685 29.9994H49.5528C49.4568 29.9994 49.4088 29.9394 49.4088 29.8194L49.4448 4.49402C49.4448 4.39803 49.4928 4.35003 49.5888 4.35003H61.4325C61.5285 4.35003 61.5765 4.41003 61.5765 4.53002V8.65192C61.5765 8.74792 61.5285 8.79592 61.4325 8.79592H53.8727V14.5558H61.4325C61.5285 14.5558 61.5765 14.6038 61.5765 14.6998L61.6125 18.8757C61.6125 18.9717 61.5645 19.0197 61.4685 19.0197H53.8727V25.4635H61.4685C61.5645 25.4635 61.6125 25.5235 61.6125 25.6435V29.8554C61.6125 29.9514 61.5645 29.9994 61.4685 29.9994ZM156.776 29.9994H150.17C150.074 29.9994 150.026 29.9394 150.026 29.8194L150.098 4.49402C150.098 4.39803 150.146 4.35003 150.242 4.35003H157.334C158.714 4.35003 159.968 4.68602 161.096 5.358C162.2 6.02999 163.07 6.92397 163.706 8.03994C164.342 9.14391 164.66 10.3439 164.66 11.6399C164.66 12.6958 164.42 13.6798 163.94 14.5918C163.46 15.5038 162.89 16.2417 162.23 16.8057C162.938 17.5137 163.49 18.3357 163.886 19.2717C164.282 20.2077 164.48 21.1916 164.48 22.2236C164.48 23.6516 164.138 24.9535 163.454 26.1295C162.758 27.3055 161.828 28.2475 160.664 28.9554C159.5 29.6514 158.204 29.9994 156.776 29.9994ZM157.334 8.72392H154.526V14.5198H157.334C158.186 14.5198 158.876 14.2198 159.404 13.6198C159.932 13.0078 160.196 12.3478 160.196 11.6399C160.196 10.8599 159.914 10.1819 159.35 9.6059C158.786 9.01792 158.114 8.72392 157.334 8.72392ZM156.776 18.9837H154.526L154.49 25.4995H156.776C157.664 25.4995 158.426 25.1755 159.062 24.5275C159.698 23.8796 160.016 23.1116 160.016 22.2236C160.016 21.3356 159.698 20.5736 159.062 19.9377C158.426 19.3017 157.664 18.9837 156.776 18.9837ZM173.912 30.3594C172.616 30.3594 171.416 30.0234 170.312 29.3514C169.208 28.6795 168.326 27.7795 167.666 26.6515C167.018 25.5115 166.694 24.2696 166.694 22.9256L166.766 4.49402C166.766 4.39803 166.814 4.35003 166.91 4.35003H171.05C171.146 4.35003 171.194 4.39803 171.194 4.49402V22.9256C171.194 23.7536 171.458 24.4616 171.986 25.0495C172.514 25.6255 173.156 25.9135 173.912 25.9135C174.704 25.9135 175.364 25.6255 175.892 25.0495C176.42 24.4616 176.684 23.7536 176.684 22.9256V4.49402C176.684 4.39803 176.732 4.35003 176.828 4.35003H180.968C181.064 4.35003 181.112 4.39803 181.112 4.49402L181.184 22.9256C181.184 24.2816 180.86 25.5295 180.212 26.6695C179.552 27.7975 178.676 28.6975 177.584 29.3694C176.492 30.0294 175.268 30.3594 173.912 30.3594ZM191.767 29.9994H187.538C187.454 29.9994 187.412 29.9514 187.412 29.8554L187.448 19.3797L182.516 4.49402C182.492 4.39803 182.528 4.35003 182.624 4.35003H186.728C186.848 4.35003 186.92 4.39803 186.944 4.49402L189.662 14.4118L192.433 4.49402C192.457 4.39803 192.517 4.35003 192.613 4.35003H196.753C196.849 4.35003 196.885 4.39803 196.861 4.49402L191.875 19.2357L191.911 29.8554C191.911 29.9514 191.863 29.9994 191.767 29.9994ZM210.937 29.9994H199.021C198.925 29.9994 198.877 29.9394 198.877 29.8194L198.913 4.49402C198.913 4.39803 198.961 4.35003 199.057 4.35003H210.901C210.997 4.35003 211.045 4.41003 211.045 4.53002V8.65192C211.045 8.74792 210.997 8.79592 210.901 8.79592H203.341V14.5558H210.901C210.997 14.5558 211.045 14.6038 211.045 14.6998L211.081 18.8757C211.081 18.9717 211.033 19.0197 210.937 19.0197H203.341V25.4635H210.937C211.033 25.4635 211.081 25.5235 211.081 25.6435V29.8554C211.081 29.9514 211.033 29.9994 210.937 29.9994ZM218.677 29.9994H214.501C214.405 29.9994 214.357 29.9394 214.357 29.8194L214.429 4.49402C214.429 4.39803 214.477 4.35003 214.573 4.35003H222.025C223.357 4.35003 224.581 4.67402 225.697 5.322C226.813 5.96999 227.701 6.83997 228.361 7.93194C229.033 9.02392 229.369 10.2599 229.369 11.6399C229.369 12.5398 229.231 13.3558 228.955 14.0878C228.679 14.8198 228.355 15.4378 227.983 15.9418C227.623 16.4457 227.293 16.8177 226.993 17.0577C228.325 18.5337 228.991 20.2677 228.991 22.2596L229.027 29.8194C229.027 29.9394 228.967 29.9994 228.847 29.9994H224.671C224.575 29.9994 224.527 29.9634 224.527 29.8914V22.2596C224.527 21.3716 224.215 20.6036 223.591 19.9557C222.967 19.3077 222.199 18.9837 221.287 18.9837H218.857L218.821 29.8194C218.821 29.9394 218.773 29.9994 218.677 29.9994ZM222.025 8.75992H218.857V14.5558H222.025C222.781 14.5558 223.453 14.2738 224.041 13.7098C224.641 13.1458 224.941 12.4558 224.941 11.6399C224.941 10.8599 224.653 10.1879 224.077 9.6239C223.501 9.04792 222.817 8.75992 222.025 8.75992Z" fill="#343F52"/>
<path d="M81.2501 30.3594C79.9181 30.3594 78.7001 30.0234 77.5962 29.3514C76.5042 28.6795 75.6342 27.7795 74.9862 26.6515C74.3502 25.5115 74.0322 24.2456 74.0322 22.8536L74.0682 11.3519C74.0682 9.98389 74.3802 8.74792 75.0042 7.64395C75.6282 6.52797 76.4862 5.634 77.5782 4.96201C78.6821 4.27803 79.9061 3.93604 81.2501 3.93604C82.618 3.93604 83.836 4.26603 84.904 4.92601C85.984 5.586 86.8419 6.47998 87.4779 7.60795C88.1259 8.72392 88.4499 9.97189 88.4499 11.3519V13.0438C88.4499 13.1398 88.4019 13.1878 88.3059 13.1878H84.166C84.07 13.1878 84.022 13.1398 84.022 13.0438V11.3519C84.022 10.5359 83.758 9.8339 83.23 9.24591C82.702 8.65792 82.0421 8.36393 81.2501 8.36393C80.3741 8.36393 79.7021 8.66392 79.2341 9.26391C78.7661 9.8639 78.5321 10.5599 78.5321 11.3519V22.8536C78.5321 23.7536 78.7961 24.4916 79.3241 25.0675C79.8521 25.6315 80.4941 25.9135 81.2501 25.9135C82.0421 25.9135 82.702 25.6015 83.23 24.9775C83.758 24.3416 84.022 23.6336 84.022 22.8536V21.1436C84.022 21.0476 84.07 20.9996 84.166 20.9996H88.3419C88.4379 20.9996 88.4859 21.0476 88.4859 21.1436V22.8536C88.4859 24.2336 88.1619 25.4935 87.5139 26.6335C86.8539 27.7615 85.984 28.6675 84.904 29.3514C83.824 30.0234 82.606 30.3594 81.2501 30.3594ZM89.9259 29.8194L94.4978 4.49402C94.5218 4.39803 94.5818 4.35003 94.6778 4.35003H100.024C100.12 4.35003 100.18 4.39803 100.204 4.49402L104.596 29.8194C104.608 29.9394 104.56 29.9994 104.452 29.9994H100.366C100.246 29.9994 100.18 29.9394 100.168 29.8194L99.7716 27.1195H94.7498L94.3538 29.8194C94.3418 29.9394 94.2818 29.9994 94.1738 29.9994H90.0699C89.9739 29.9994 89.9259 29.9394 89.9259 29.8194ZM97.5217 12.8278L97.3057 11.4599L97.1437 12.8278L95.4877 23.1776H99.0337L97.5217 12.8278ZM113.163 30.3594C111.855 30.3594 110.649 30.0234 109.545 29.3514C108.453 28.6795 107.577 27.7855 106.917 26.6695C106.269 25.5415 105.945 24.3056 105.945 22.9616V21.2696C105.945 21.1376 106.005 21.0716 106.125 21.0716H110.265C110.361 21.0716 110.409 21.1376 110.409 21.2696V22.9616C110.409 23.7656 110.679 24.4616 111.219 25.0495C111.759 25.6255 112.407 25.9135 113.163 25.9135C113.931 25.9135 114.585 25.6195 115.125 25.0315C115.665 24.4316 115.935 23.7416 115.935 22.9616C115.935 22.0616 115.347 21.2756 114.171 20.6036C113.979 20.4836 113.727 20.3396 113.415 20.1717C113.115 19.9917 112.755 19.7877 112.335 19.5597C111.915 19.3317 111.507 19.1097 111.111 18.8937C110.715 18.6657 110.331 18.4497 109.959 18.2457C108.615 17.4537 107.613 16.4637 106.953 15.2758C106.305 14.0758 105.981 12.7318 105.981 11.2439C105.981 9.8759 106.317 8.63993 106.989 7.53595C107.661 6.44398 108.537 5.58 109.617 4.94401C110.709 4.29603 111.891 3.97204 113.163 3.97204C114.471 3.97204 115.671 4.29603 116.763 4.94401C117.855 5.604 118.725 6.47998 119.373 7.57195C120.033 8.66392 120.363 9.8879 120.363 11.2439V14.2678C120.363 14.3638 120.315 14.4118 120.219 14.4118H116.079C115.983 14.4118 115.935 14.3638 115.935 14.2678L115.899 11.2439C115.899 10.3799 115.629 9.6779 115.089 9.13791C114.549 8.59793 113.907 8.32793 113.163 8.32793C112.407 8.32793 111.759 8.61593 111.219 9.19191C110.679 9.7679 110.409 10.4519 110.409 11.2439C110.409 12.0478 110.577 12.7198 110.913 13.2598C111.261 13.7998 111.891 14.3158 112.803 14.8078C112.899 14.8558 113.121 14.9758 113.469 15.1678C113.817 15.3598 114.201 15.5758 114.621 15.8158C115.053 16.0438 115.443 16.2537 115.791 16.4457C116.139 16.6257 116.349 16.7337 116.421 16.7697C117.645 17.4537 118.611 18.2937 119.319 19.2897C120.039 20.2856 120.399 21.5096 120.399 22.9616C120.399 24.3656 120.075 25.6255 119.427 26.7415C118.767 27.8575 117.891 28.7394 116.799 29.3874C115.707 30.0354 114.495 30.3594 113.163 30.3594ZM127.275 29.9994H123.099C123.003 29.9994 122.955 29.9394 122.955 29.8194L122.991 4.49402C122.991 4.39803 123.051 4.35003 123.171 4.35003H127.275C127.395 4.35003 127.455 4.39803 127.455 4.49402L127.419 14.5198H132.945V4.49402C132.945 4.39803 132.993 4.35003 133.089 4.35003H137.193C137.313 4.35003 137.373 4.39803 137.373 4.49402L137.445 29.8194C137.445 29.9394 137.385 29.9994 137.265 29.9994H133.125C133.005 29.9994 132.945 29.9394 132.945 29.8194V18.9837H127.419V29.8194C127.419 29.9394 127.371 29.9994 127.275 29.9994Z" fill="white"/>
<path d="M110.865 29.7441H115.5V33.9933H110.865V29.7441Z" fill="white"/>
<path d="M110.865 0H115.5V5.02174H110.865V0Z" fill="white"/>
</svg>
