<svg width="130" height="67" viewBox="0 0 130 67" fill="none" xmlns="http://www.w3.org/2000/svg">
<path d="M8.24543 27.3601C6.9132 27.3601 5.69499 27.024 4.59079 26.3519C3.49861 25.6798 2.62846 24.7796 1.98034 23.6514C1.34423 22.5112 1.02618 21.245 1.02618 19.8528L1.06218 8.34877C1.06218 6.98053 1.37424 5.74432 1.99835 4.64013C2.62245 3.52394 3.4806 2.62978 4.57279 1.95766C5.67698 1.27355 6.90119 0.931486 8.24543 0.931486C9.61366 0.931486 10.8319 1.26154 11.9001 1.92166C12.9802 2.58177 13.8384 3.47593 14.4745 4.60412C15.1226 5.72032 15.4467 6.96853 15.4467 8.34877V10.0411C15.4467 10.1371 15.3987 10.1851 15.3026 10.1851H11.1619C11.0659 10.1851 11.0179 10.1371 11.0179 10.0411V8.34877C11.0179 7.53263 10.7539 6.83051 10.2258 6.24241C9.69768 5.6543 9.03756 5.36025 8.24543 5.36025C7.36928 5.36025 6.69716 5.6603 6.22908 6.26041C5.761 6.86051 5.52696 7.55663 5.52696 8.34877V19.8528C5.52696 20.7529 5.791 21.491 6.31909 22.0671C6.84719 22.6312 7.4893 22.9133 8.24543 22.9133C9.03756 22.9133 9.69768 22.6012 10.2258 21.9771C10.7539 21.341 11.0179 20.6329 11.0179 19.8528V18.1425C11.0179 18.0464 11.0659 17.9984 11.1619 17.9984H15.3387C15.4347 17.9984 15.4827 18.0464 15.4827 18.1425V19.8528C15.4827 21.233 15.1586 22.4932 14.5105 23.6334C13.8504 24.7616 12.9802 25.6678 11.9001 26.3519C10.8199 27.024 9.60166 27.3601 8.24543 27.3601ZM24.9883 27.3601C23.6801 27.3601 22.4739 27.024 21.3697 26.3519C20.2775 25.6798 19.3954 24.7856 18.7232 23.6694C18.0631 22.5412 17.7331 21.305 17.7331 19.9608L17.7691 8.27676C17.7691 6.90852 18.0991 5.67831 18.7592 4.58612C19.4074 3.48193 20.2835 2.59978 21.3877 1.93966C22.4919 1.26754 23.6921 0.931486 24.9883 0.931486C26.3326 0.931486 27.5388 1.26154 28.607 1.92166C29.6871 2.58177 30.5513 3.46993 31.1994 4.58612C31.8595 5.69031 32.1896 6.92052 32.1896 8.27676L32.2256 19.9608C32.2256 21.305 31.9015 22.5352 31.2534 23.6514C30.5933 24.7796 29.7171 25.6798 28.625 26.3519C27.5328 27.024 26.3206 27.3601 24.9883 27.3601ZM24.9883 22.9133C25.7325 22.9133 26.3806 22.6132 26.9327 22.0131C27.4848 21.401 27.7608 20.7169 27.7608 19.9608L27.7248 8.27676C27.7248 7.46062 27.4668 6.7705 26.9507 6.2064C26.4346 5.6423 25.7805 5.36025 24.9883 5.36025C24.2322 5.36025 23.5841 5.6363 23.044 6.1884C22.5039 6.74049 22.2338 7.43661 22.2338 8.27676V19.9608C22.2338 20.7649 22.5039 21.461 23.044 22.0491C23.5841 22.6252 24.2322 22.9133 24.9883 22.9133ZM39.0308 27H35.3401C35.1481 27 35.0521 26.916 35.0521 26.748L35.0161 1.63361C35.0161 1.44157 35.1121 1.34556 35.3041 1.34556H38.6347L44.8638 15.8741L44.6837 1.63361C44.6837 1.44157 44.7918 1.34556 45.0078 1.34556H48.6624C48.8064 1.34556 48.8785 1.44157 48.8785 1.63361L48.9145 26.784C48.9145 26.928 48.8545 27 48.7344 27H45.4939L39.1028 13.4256L39.3728 26.712C39.3728 26.904 39.2588 27 39.0308 27ZM59.9864 27H55.8277C55.7196 27 55.6656 26.94 55.6656 26.82V5.79233H50.8768C50.7568 5.79233 50.6968 5.73232 50.6968 5.6123L50.7328 1.48958C50.7328 1.39357 50.7808 1.34556 50.8768 1.34556H64.8832C65.0153 1.34556 65.0813 1.39357 65.0813 1.48958V5.6123C65.0813 5.73232 65.0333 5.79233 64.9372 5.79233H60.0944L60.1304 26.82C60.1304 26.94 60.0824 27 59.9864 27ZM71.2023 27H67.0256C66.9296 27 66.8816 26.94 66.8816 26.82L66.9536 1.48958C66.9536 1.39357 67.0016 1.34556 67.0976 1.34556H74.5509C75.8831 1.34556 77.1073 1.66961 78.2235 2.31773C79.3397 2.96584 80.2279 3.83599 80.888 4.92818C81.5601 6.02037 81.8962 7.25658 81.8962 8.63682C81.8962 9.53698 81.7582 10.3531 81.4821 11.0852C81.2061 11.8174 80.882 12.4355 80.5099 12.9396C80.1499 13.4437 79.8198 13.8157 79.5198 14.0558C80.852 15.532 81.5181 17.2663 81.5181 19.2587L81.5541 26.82C81.5541 26.94 81.4941 27 81.3741 27H77.1974C77.1013 27 77.0533 26.964 77.0533 26.892V19.2587C77.0533 18.3705 76.7413 17.6024 76.1172 16.9543C75.4931 16.3061 74.7249 15.9821 73.8128 15.9821H71.3824L71.3464 26.82C71.3464 26.94 71.2983 27 71.2023 27ZM74.5509 5.75632H71.3824V11.5533H74.5509C75.307 11.5533 75.9792 11.2713 76.5673 10.7072C77.1674 10.1431 77.4674 9.45296 77.4674 8.63682C77.4674 7.85669 77.1794 7.18457 76.6033 6.62047C76.0272 6.04437 75.343 5.75632 74.5509 5.75632ZM83.4264 26.82L87.9992 1.48958C88.0232 1.39357 88.0832 1.34556 88.1793 1.34556H93.5262C93.6222 1.34556 93.6822 1.39357 93.7062 1.48958L98.099 26.82C98.111 26.94 98.063 27 97.955 27H93.8682C93.7482 27 93.6822 26.94 93.6702 26.82L93.2741 24.1195H88.2513L87.8552 26.82C87.8432 26.94 87.7832 27 87.6752 27H83.5705C83.4744 27 83.4264 26.94 83.4264 26.82ZM91.0238 9.82503L90.8077 8.45679L90.6457 9.82503L88.9894 20.1768H92.536L91.0238 9.82503ZM106.434 27.3601C105.102 27.3601 103.884 27.024 102.78 26.3519C101.688 25.6798 100.817 24.7796 100.169 23.6514C99.5332 22.5112 99.2152 21.245 99.2152 19.8528L99.2512 8.34877C99.2512 6.98053 99.5632 5.74432 100.187 4.64013C100.811 3.52394 101.67 2.62978 102.762 1.95766C103.866 1.27355 105.09 0.931486 106.434 0.931486C107.803 0.931486 109.021 1.26154 110.089 1.92166C111.169 2.58177 112.027 3.47593 112.664 4.60412C113.312 5.72032 113.636 6.96853 113.636 8.34877V10.0411C113.636 10.1371 113.588 10.1851 113.492 10.1851H109.351C109.255 10.1851 109.207 10.1371 109.207 10.0411V8.34877C109.207 7.53263 108.943 6.83051 108.415 6.24241C107.887 5.6543 107.227 5.36025 106.434 5.36025C105.558 5.36025 104.886 5.6603 104.418 6.26041C103.95 6.86051 103.716 7.55663 103.716 8.34877V19.8528C103.716 20.7529 103.98 21.491 104.508 22.0671C105.036 22.6312 105.678 22.9133 106.434 22.9133C107.227 22.9133 107.887 22.6012 108.415 21.9771C108.943 21.341 109.207 20.6329 109.207 19.8528V18.1425C109.207 18.0464 109.255 17.9984 109.351 17.9984H113.528C113.624 17.9984 113.672 18.0464 113.672 18.1425V19.8528C113.672 21.233 113.348 22.4932 112.7 23.6334C112.039 24.7616 111.169 25.6678 110.089 26.3519C109.009 27.024 107.791 27.3601 106.434 27.3601ZM124.222 27H120.063C119.955 27 119.901 26.94 119.901 26.82V5.79233H115.112C114.992 5.79233 114.932 5.73232 114.932 5.6123L114.968 1.48958C114.968 1.39357 115.016 1.34556 115.112 1.34556H129.118C129.25 1.34556 129.316 1.39357 129.316 1.48958V5.6123C129.316 5.73232 129.268 5.79233 129.172 5.79233H124.33L124.366 26.82C124.366 26.94 124.318 27 124.222 27ZM5.779 58H1.60228C1.50626 58 1.45825 57.94 1.45825 57.82L1.53026 32.4896C1.53026 32.3936 1.57827 32.3456 1.67429 32.3456H9.12758C10.4598 32.3456 11.684 32.6696 12.8002 33.3177C13.9164 33.9658 14.8046 34.836 15.4647 35.9282C16.1368 37.0204 16.4729 38.2566 16.4729 39.6368C16.4729 40.537 16.3348 41.3531 16.0588 42.0852C15.7827 42.8174 15.4587 43.4355 15.0866 43.9396C14.7265 44.4437 14.3965 44.8157 14.0964 45.0558C15.4287 46.532 16.0948 48.2663 16.0948 50.2587L16.1308 57.82C16.1308 57.94 16.0708 58 15.9508 58H11.774C11.678 58 11.63 57.964 11.63 57.892V50.2587C11.63 49.3705 11.318 48.6024 10.6939 47.9543C10.0697 47.3061 9.30161 46.9821 8.38945 46.9821H5.95903L5.92303 57.82C5.92303 57.94 5.87502 58 5.779 58ZM9.12758 36.7563H5.95903V42.5533H9.12758C9.88371 42.5533 10.5558 42.2713 11.1439 41.7072C11.744 41.1431 12.0441 40.453 12.0441 39.6368C12.0441 38.8567 11.756 38.1846 11.1799 37.6205C10.6038 37.0444 9.91972 36.7563 9.12758 36.7563ZM31.3074 58H19.3894C19.2933 58 19.2453 57.94 19.2453 57.82L19.2813 32.4896C19.2813 32.3936 19.3293 32.3456 19.4254 32.3456H31.2714C31.3674 32.3456 31.4154 32.4056 31.4154 32.5256V36.6483C31.4154 36.7443 31.3674 36.7923 31.2714 36.7923H23.7101V42.5533H31.2714C31.3674 42.5533 31.4154 42.6013 31.4154 42.6974L31.4514 46.8741C31.4514 46.9701 31.4034 47.0181 31.3074 47.0181H23.7101V53.4632H31.3074C31.4034 53.4632 31.4514 53.5232 31.4514 53.6432V57.856C31.4514 57.952 31.4034 58 31.3074 58ZM41.8392 58H37.3745C37.2665 58 37.2064 57.94 37.1944 57.82L32.8377 32.4896C32.8137 32.3936 32.8497 32.3456 32.9457 32.3456H37.0864C37.1824 32.3456 37.2424 32.3936 37.2665 32.4896L39.6249 49.1425L42.0553 32.4896C42.0793 32.3936 42.1513 32.3456 42.2713 32.3456H45.6019C45.6979 32.3456 45.7579 32.3936 45.7819 32.4896L48.1763 49.1425L50.5708 32.4896C50.5948 32.3936 50.6548 32.3456 50.7508 32.3456H54.8555C54.9755 32.3456 55.0235 32.3936 54.9995 32.4896L50.6068 57.82C50.5948 57.868 50.5588 57.91 50.4987 57.946L50.4267 58H45.962C45.8899 58 45.8299 57.94 45.7819 57.82L43.8916 44.5877L42.0193 57.82C42.0073 57.94 41.9473 58 41.8392 58ZM63.2269 58.3601C61.9187 58.3601 60.7125 58.024 59.6083 57.3519C58.5161 56.6798 57.634 55.7856 56.9619 54.6694C56.3017 53.5412 55.9717 52.305 55.9717 50.9608L56.0077 39.2768C56.0077 37.9085 56.3378 36.6783 56.9979 35.5861C57.646 34.4819 58.5221 33.5998 59.6263 32.9397C60.7305 32.2675 61.9307 31.9315 63.2269 31.9315C64.5712 31.9315 65.7774 32.2615 66.8456 32.9217C67.9258 33.5818 68.7899 34.4699 69.438 35.5861C70.0981 36.6903 70.4282 37.9205 70.4282 39.2768L70.4642 50.9608C70.4642 52.305 70.1401 53.5352 69.492 54.6514C68.8319 55.7796 67.9558 56.6798 66.8636 57.3519C65.7714 58.024 64.5592 58.3601 63.2269 58.3601ZM63.2269 53.9133C63.9711 53.9133 64.6192 53.6132 65.1713 53.0131C65.7234 52.401 65.9994 51.7169 65.9994 50.9608L65.9634 39.2768C65.9634 38.4606 65.7054 37.7705 65.1893 37.2064C64.6732 36.6423 64.0191 36.3603 63.2269 36.3603C62.4708 36.3603 61.8227 36.6363 61.2826 37.1884C60.7425 37.7405 60.4725 38.4366 60.4725 39.2768V50.9608C60.4725 51.7649 60.7425 52.461 61.2826 53.0491C61.8227 53.6252 62.4708 53.9133 63.2269 53.9133ZM77.5754 58H73.3987C73.3027 58 73.2547 57.94 73.2547 57.82L73.3267 32.4896C73.3267 32.3936 73.3747 32.3456 73.4707 32.3456H80.924C82.2562 32.3456 83.4805 32.6696 84.5966 33.3177C85.7128 33.9658 86.601 34.836 87.2611 35.9282C87.9332 37.0204 88.2693 38.2566 88.2693 39.6368C88.2693 40.537 88.1313 41.3531 87.8552 42.0852C87.5792 42.8174 87.2551 43.4355 86.883 43.9396C86.523 44.4437 86.1929 44.8157 85.8929 45.0558C87.2251 46.532 87.8912 48.2663 87.8912 50.2587L87.9272 57.82C87.9272 57.94 87.8672 58 87.7472 58H83.5705C83.4745 58 83.4264 57.964 83.4264 57.892V50.2587C83.4264 49.3705 83.1144 48.6024 82.4903 47.9543C81.8662 47.3061 81.098 46.9821 80.1859 46.9821H77.7555L77.7195 57.82C77.7195 57.94 77.6714 58 77.5754 58ZM80.924 36.7563H77.7555V42.5533H80.924C81.6801 42.5533 82.3523 42.2713 82.9404 41.7072C83.5405 41.1431 83.8405 40.453 83.8405 39.6368C83.8405 38.8567 83.5525 38.1846 82.9764 37.6205C82.4003 37.0444 81.7162 36.7563 80.924 36.7563ZM95.3625 58H91.1858C91.0898 58 91.0418 57.94 91.0418 57.82L91.1138 32.5256C91.1138 32.4056 91.1618 32.3456 91.2578 32.3456H95.3985C95.4945 32.3456 95.5425 32.4056 95.5425 32.5256V41.2571L101.322 32.4896C101.418 32.3936 101.508 32.3456 101.592 32.3456H105.822C105.93 32.3456 105.954 32.3936 105.894 32.4896L99.5212 42.6613L106.668 57.856C106.728 57.952 106.668 58 106.488 58H101.988C101.868 58 101.796 57.952 101.772 57.856L96.7848 47.0181L95.5065 49.0344V57.82C95.5065 57.94 95.4585 58 95.3625 58Z" fill="#F3F3F3"/>
<rect x="1.44804" y="61.9475" width="30.0469" height="4.4527" fill="#FF0000"/>
</svg>
